Coordinates
version=1
nRows=13
nColumns=36
inDegrees=yes

Units are S.I. units (second, meters, Newtons, ...)
If the header above contains a line with 'inDegrees', this indicates whether rotational values are in degrees (yes) or radians (no).

endheader
time	pelvis_tilt	pelvis_list	pelvis_rotation	pelvis_tx	pelvis_ty	pelvis_tz	hip_flexion_r	hip_adduction_r	hip_rotation_r	knee_angle_r	knee_angle_r_beta	ankle_angle_r	subtalar_angle_r	mtp_angle_r	hip_flexion_l	hip_adduction_l	hip_rotation_l	knee_angle_l	knee_angle_l_beta	ankle_angle_l	subtalar_angle_l	mtp_angle_l	lumbar_extension	lumbar_bending	lumbar_rotation	arm_flex_r	arm_add_r	arm_rot_r	elbow_flex_r	pro_sup_r	arm_flex_l	arm_add_l	arm_rot_l	elbow_flex_l	pro_sup_l
      1.73333330	     -1.09164855	     -3.18279463	     -2.83342836	     -1.03694416	      1.34753739	     -0.09235174	     -1.86764810	      2.73934141	      4.47504982	      1.10147777	      0.01922441	      2.07243775	    -11.82091332	     -7.49999987	     -3.67684136	     -1.60099234	      8.00831704	      0.55941100	      0.00976356	      5.51598904	    -13.87035352	     -7.49999987	     -3.13117606	      3.47600077	      1.97840453	     -7.57703958	    -10.62805943	     -6.48838217	     89.57497742	     72.44160808	     -3.67186040	     -6.08550269	      8.76468448	     31.89456805	     70.52283947
      1.75000000	     -1.33233213	     -3.05723365	     -2.80170977	     -1.03695650	      1.34355034	     -0.09262574	     -1.34418891	      2.56524157	      4.62854284	      1.30474668	      0.02277213	      2.08981668	    -12.21392437	     -7.49999987	     -3.30543329	     -1.41341603	      8.02695392	      0.51979697	      0.00907217	      5.49625295	    -13.80441752	     -7.49999987	     -3.29865862	      3.37457119	      1.79149635	     -7.76933668	    -10.12229612	     -6.40564038	     82.12580535	     72.43559461	     -3.82135592	     -5.95938138	      7.61505275	     32.44534901	     71.06477805
      1.76666670	     -1.33217761	     -2.99179530	     -2.86005272	     -1.03660484	      1.34457171	     -0.09186938	     -1.09521675	      2.47281928	      4.63665167	      1.53985396	      0.02687552	      2.08314018	    -12.36978717	     -7.49999987	     -3.26042551	     -1.31903633	      8.01920015	      0.47610465	      0.00830959	      5.40089120	    -13.82307704	     -7.49999987	     -3.87662737	      3.27506325	      2.50005535	     -9.37727928	     -9.57037282	     -6.11567922	     76.86975673	     72.47599663	     -3.66866775	     -5.92784703	      7.14332775	     33.22192602	     71.29870888
      1.78333330	     -1.88363501	     -2.91050948	     -2.83083909	     -1.03647892	      1.34434599	     -0.09203083	     -0.36346120	      2.41694113	      4.75521053	      1.65411386	      0.02886973	      1.99041275	    -12.73913582	     -7.49999987	     -2.61688384	     -1.25262732	      7.88952558	      0.43172238	      0.00753498	      5.47710108	    -13.41019976	     -7.49999987	     -3.46186325	      3.14880232	      0.52125491	     -8.71163632	     -9.25117635	     -3.94949294	     68.50514168	     75.31176899	     -5.71362823	     -5.39399901	      0.40461379	     35.05054099	     80.95514681
      1.80000000	     -2.16818844	     -2.87098710	     -2.85631649	     -1.03571663	      1.34054019	     -0.09162009	      0.07952232	      2.40017739	      4.76038119	      1.90132803	      0.03318443	      2.02544609	    -12.92546806	     -7.49999987	     -2.32939272	     -1.22807036	      7.79563600	      0.38448097	      0.00671046	      5.63363411	    -13.16003877	     -7.49999987	     -3.41488560	      3.25183426	      0.58980651	     -9.47320496	     -8.83140014	     -4.07800847	     63.22968362	     75.19713711	     -6.14639779	     -5.64264933	      0.32542115	     35.76031715	     81.00985837
      1.81666670	     -2.45349038	     -2.81335544	     -2.84992010	     -1.03559267	      1.34100814	     -0.09185821	      0.40264147	      2.37991798	      4.74574814	      1.97617977	      0.03449084	      2.07111058	    -13.06195549	     -7.49999987	     -2.03210303	     -1.19086251	      7.63004028	      0.35544650	      0.00620371	      5.77963973	    -12.79453004	     -7.49999987	     -3.36090342	      3.38591123	      0.42315611	     -9.71516210	     -8.82517136	     -3.67749627	     58.69848268	     74.74171657	     -6.62546721	     -5.83878664	      0.16582090	     36.35012508	     80.35638712
      1.83333330	     -2.87988938	     -2.77353241	     -2.69573324	     -1.03496721	      1.33328212	     -0.09160107	      0.93421047	      2.37282979	      4.82643150	      2.17429698	      0.03794864	      2.02978080	    -13.57475328	     -7.49999987	     -1.58475368	     -1.18916877	      7.67905105	      0.34650336	      0.00604762	      5.94515282	    -12.69014872	     -7.49999987	     -3.05271155	      3.45817730	     -0.40276311	     -9.36100673	     -8.87276807	     -1.80022896	     53.40064647	     76.24591347	     -7.55509204	     -6.01852100	     -0.79726116	     37.36120956	     82.11332982
      1.85000000	     -3.13478437	     -2.74174651	     -2.38803208	     -1.03488159	      1.33824697	     -0.09199351	      1.03798205	      2.35346273	      4.63165076	      2.02513319	      0.03534524	      1.87004579	    -13.93547076	     -7.49999987	     -1.27847051	     -1.21236611	      7.76900145	      0.33704978	      0.00588263	      5.95938547	    -12.39034183	     -7.49999987	     -2.99693076	      3.56275509	     -0.77452860	     -8.77878656	     -8.27955951	     -1.13323085	     47.32795896	     77.21971196	     -7.85295555	     -6.09372496	     -1.54445306	     37.18787614	     83.70306736
      1.86666670	     -3.38652510	     -2.76127248	     -2.14207271	     -1.03453753	      1.33487782	     -0.09177471	      1.21566051	      2.39508355	      4.52586647	      1.94733735	      0.03398745	      1.98017356	    -13.99196559	     -7.49999987	     -1.01975275	     -1.26311828	      7.67776198	      0.32393662	      0.00565376	      6.22361237	    -11.97478077	     -7.49999987	     -2.97754460	      3.73253906	     -0.58085435	     -8.30032516	     -7.52299191	     -1.29071295	     42.29470048	     77.42006585	     -7.85440496	     -6.25050569	     -1.62842398	     37.17948986	     84.25164412
      1.88333330	     -3.79807563	     -2.77172755	     -1.97731072	     -1.04153344	      1.33938457	     -0.08753530	      1.65101406	      2.52297388	      4.43250659	      1.80191867	      0.03144941	      1.97499229	    -14.14009714	     -7.49999987	     -0.46764551	     -1.37705610	      7.52559059	      0.30491794	      0.00532182	      6.35570024	    -11.48324361	     -7.49999987	     -2.98040105	      3.80166333	     -0.25846772	     -6.96706177	     -6.93926587	     -0.54230441	     37.41212227	     77.78542840	     -7.49088885	     -6.52525967	     -1.57367876	     36.92168484	     84.77569303
      1.90000000	     -4.13031517	     -2.76839561	     -1.84118952	     -1.04118390	      1.33557730	     -0.08719289	      1.96936517	      2.61268676	      4.42196564	      1.58304884	      0.02762941	      1.92139694	    -14.29474697	     -7.49999987	     -0.00267191	     -1.48228119	      7.30848581	      0.29965856	      0.00523003	      6.42999088	    -11.03621969	     -7.49999987	     -3.04838868	      3.81266120	     -0.65149240	     -5.37953891	     -6.85987818	      2.17428430	     33.25860713	     78.36765195	     -7.93602769	     -6.63057618	     -2.23181787	     37.36262524	     85.59912866
      1.91666670	     -4.55141851	     -2.72715831	     -1.75347190	     -1.04148570	      1.33219510	     -0.08761623	      2.44896133	      2.66971486	      4.42921813	      1.48159696	      0.02585875	      1.93460912	    -14.46929563	     -7.49999987	      0.55635616	     -1.53566995	      7.11796632	      0.29248791	      0.00510488	      6.46509190	    -10.70417490	     -7.49999987	     -3.00075588	      3.80508199	     -0.49128354	     -4.78572060	     -6.31702209	      2.23215798	     30.76859948	     77.51682161	     -7.95888613	     -6.78973153	     -1.57356042	     37.53107134	     84.83714505
      1.93333330	     -4.76107347	     -2.68896662	     -1.75593513	     -1.04093129	      1.33257775	     -0.08770247	      2.68297196	      2.70193685	      4.37711514	      1.43681579	      0.02507717	      1.93159558	    -14.44818021	     -7.49999987	      0.82284968	     -1.56882401	      6.77569958	      0.28998269	      0.00506115	      6.52873379	    -10.23095676	     -7.49999987	     -3.02246943	      3.83742464	     -0.59615608	     -4.49772523	     -6.28710937	      2.51971375	     29.75635640	     79.36225356	     -8.31669330	     -6.82684248	     -2.01025206	     37.84515225	     87.82383387
